<svg width="200" height="200" viewBox="0 0 200 200" fill="none" xmlns="http://www.w3.org/2000/svg">
<rect width="200" height="200" rx="100" fill="white"/>
<path fill-rule="evenodd" clip-rule="evenodd" d="M145.63 81.9967C159.634 89.5527 159.634 109.644 145.63 117.2L88.4968 148.026C75.1717 155.215 59 145.565 59 130.424L59 68.7721C59 53.6312 75.1717 43.9812 88.4968 51.1707L145.63 81.9967ZM81.7147 75.4637C81.7147 72.8502 83.8334 70.7315 86.447 70.7315C89.0605 70.7315 91.1792 72.8502 91.1792 75.4637V122.786C91.1792 125.4 89.0605 127.518 86.447 127.518C83.8334 127.518 81.7147 125.4 81.7147 122.786V75.4637ZM73.1967 77.3566C70.5832 77.3566 68.4645 79.4753 68.4645 82.0888V115.215C68.4645 117.828 70.5832 119.947 73.1967 119.947C75.8103 119.947 77.929 117.828 77.929 115.215V82.0888C77.929 79.4753 75.8103 77.3566 73.1967 77.3566ZM121.466 86.8211C121.466 84.2075 123.584 82.0888 126.198 82.0888C128.812 82.0888 130.93 84.2075 130.93 86.8211V111.429C130.93 114.042 128.812 116.161 126.198 116.161C123.584 116.161 121.466 114.042 121.466 111.429V86.8211ZM112.948 91.5533C110.334 91.5533 108.215 93.672 108.215 96.2856V101.964C108.215 104.578 110.334 106.696 112.948 106.696C115.561 106.696 117.68 104.578 117.68 101.964V96.2856C117.68 93.672 115.561 91.5533 112.948 91.5533ZM134.716 91.5533C134.716 88.9398 136.835 86.8211 139.448 86.8211C142.062 86.8211 144.18 88.9398 144.18 91.5533V105.75C144.18 108.364 142.062 110.482 139.448 110.482C136.835 110.482 134.716 108.364 134.716 105.75V91.5533ZM99.6972 94.3927C97.0836 94.3927 94.965 96.5114 94.965 99.1249C94.965 101.738 97.0836 103.857 99.6972 103.857C102.311 103.857 104.429 101.738 104.429 99.1249C104.429 96.5114 102.311 94.3927 99.6972 94.3927Z" fill="black"/>
</svg>
